# xmcd
#
# Track frame offsets: 
#        150
#        19625
#        47685
#        65370
#        100260
#        125585
#        156577
#        208097
#        239297
#
# Disc length: 3735 seconds
#
# Revision: 0
# Processed by: cddbd v1.5.2PL0 Copyright (c) Steve Scherf et al.
# Submitted via: ExactAudioCopy v0.99pb5
#
DISCID=7a0e9509
DTITLE=Eric Clapton  - Superman In Europe - Disc 4 (030601)
DYEAR=1900
DGENRE=
TTITLE0=Travelin' Light
TTITLE1=Badge
TTITLE2=Hoochie Coochie Man
TTITLE3=Stormy Monday
TTITLE4=Cocaine
TTITLE5=Wonderful Tonight
TTITLE6=Layla
TTITLE7=Sunshine Of Your Love
TTITLE8=Somewhere Over The Rainbow
EXTD=
EXTT0=
EXTT1=
EXTT2=
EXTT3=
EXTT4=
EXTT5=
EXTT6=
EXTT7=
EXTT8=
PLAYORDER=
